<?xml version="1.0" standalone="no"?>
<!DOCTYPE svg PUBLIC "-//W3C//DTD SVG 20010904//EN"
 "http://www.w3.org/TR/2001/REC-SVG-20010904/DTD/svg10.dtd">
<svg version="1.0" xmlns="http://www.w3.org/2000/svg"
 width="500.000000pt" height="500.000000pt" viewBox="0 0 500.000000 500.000000"
 preserveAspectRatio="xMidYMid meet">

<g transform="translate(0.000000,500.000000) scale(0.100000,-0.100000)"
fill="#000000" stroke="none">
<path d="M0 2500 l0 -2500 2500 0 2500 0 0 2500 0 2500 -2500 0 -2500 0 0
-2500z m2148 260 c-2 -49 -1 -90 4 -90 4 0 8 6 8 14 0 24 50 56 87 56 77 0
103 -41 103 -165 l0 -85 -40 0 -40 0 0 78 c0 88 -8 102 -56 102 -48 0 -64 -29
-64 -112 l0 -68 -40 0 -40 0 0 180 0 180 41 0 41 0 -4 -90z m-727 -98 l58
-173 -41 3 c-39 3 -42 6 -56 46 l-14 43 -71 -3 -72 -3 -15 -42 c-13 -40 -17
-43 -52 -43 -21 0 -38 3 -38 7 0 5 25 84 56 176 l56 168 66 -3 65 -3 58 -173z
m1107 166 c34 -34 -13 -82 -57 -59 -20 11 -29 50 -14 64 11 11 58 8 71 -5z
m232 -52 c0 -34 1 -35 43 -38 39 -3 42 -5 45 -35 3 -33 3 -33 -42 -33 l-46 0
0 -54 0 -55 48 -3 c45 -3 47 -4 50 -35 l3 -33 -55 0 c-30 0 -61 -3 -69 -6 -9
-3 -25 4 -36 15 -18 18 -21 33 -21 96 l0 75 -31 0 c-28 0 -30 2 -27 33 2 27 8
33 31 35 19 2 27 9 27 23 0 13 12 25 33 34 45 20 47 19 47 -19z m-1030 -71 l0
-35 -65 0 -65 0 0 -90 0 -90 -40 0 -40 0 0 109 c0 60 3 116 6 125 5 13 24 16
105 16 l99 0 0 -35z m238 15 c26 -16 52 -53 52 -76 0 -12 -79 -2 -90 11 -18
22 -77 19 -90 -4 -15 -28 -12 -67 5 -81 21 -17 62 -16 84 4 9 9 34 16 55 16
34 0 37 -2 30 -22 -15 -53 -60 -80 -130 -80 -103 0 -158 81 -123 181 24 67
135 94 207 51z m566 4 c3 -9 6 -49 6 -90 l0 -74 35 0 c33 0 35 -2 35 -35 l0
-35 -110 0 -110 0 0 35 c0 33 2 35 35 35 l35 0 0 55 c0 54 0 55 -30 55 -28 0
-30 3 -30 35 l0 35 64 0 c49 0 65 -4 70 -16z m-1394 -509 c7 -25 16 -47 20
-50 4 -2 15 20 26 50 10 30 21 55 25 55 3 0 14 -21 24 -47 10 -27 21 -51 24
-56 4 -4 15 18 25 49 10 31 20 53 23 51 7 -7 -37 -137 -46 -137 -4 0 -15 25
-25 55 -11 30 -22 52 -27 50 -4 -3 -15 -28 -24 -55 -9 -28 -20 -50 -24 -50 -4
0 -15 26 -25 58 -10 31 -21 63 -24 71 -3 8 -1 12 5 8 6 -4 16 -27 23 -52z
m248 48 c-33 -4 -38 -8 -38 -29 0 -20 5 -24 33 -26 l32 -1 -32 -4 c-29 -4 -33
-8 -33 -33 0 -26 4 -29 38 -33 l37 -4 -42 -1 -43 -2 0 70 0 70 43 -2 42 -1
-37 -4z m150 -5 c7 -7 12 -20 12 -30 0 -10 -5 -18 -12 -18 -9 0 -9 -3 0 -12
17 -17 15 -55 -4 -62 -9 -3 -31 -6 -50 -6 l-34 0 0 70 0 70 38 0 c21 0 43 -5
50 -12z m190 -4 c16 -11 22 -25 22 -54 0 -46 -26 -70 -77 -70 l-33 0 0 70 0
70 33 0 c18 0 43 -7 55 -16z m110 9 c-33 -4 -38 -8 -38 -29 0 -20 5 -24 33
-26 l32 -1 -32 -4 c-29 -4 -33 -8 -33 -33 0 -26 4 -29 38 -33 34 -3 33 -4 -10
-5 l-48 -2 0 70 0 70 48 -2 c43 -1 44 -2 10 -5z m86 -58 l23 -58 24 62 c13 33
27 61 31 61 9 0 -45 -131 -55 -133 -9 -2 -57 106 -57 126 0 18 10 2 34 -58z
m154 58 c-33 -4 -38 -8 -38 -29 0 -21 5 -24 38 -25 l37 -2 -35 -6 c-29 -5 -36
-11 -38 -33 -3 -25 0 -27 40 -31 l43 -4 -47 -1 -48 -2 0 70 0 70 43 -2 42 -1
-37 -4z m120 -126 l37 -4 -42 -1 -43 -2 2 73 2 72 3 -67 4 -67 37 -4z m172
113 c11 -11 20 -33 20 -50 0 -17 -9 -39 -20 -50 -11 -11 -33 -20 -50 -20 -17
0 -39 9 -50 20 -11 11 -20 33 -20 50 0 17 9 39 20 50 11 11 33 20 50 20 17 0
39 -9 50 -20z m134 4 c30 -30 10 -74 -34 -74 -25 0 -30 -4 -30 -25 0 -14 -4
-25 -10 -25 -6 0 -10 30 -10 70 l0 70 34 0 c19 0 42 -7 50 -16z m82 -24 c15
-22 29 -40 33 -40 3 0 17 18 31 40 14 22 28 40 32 40 5 0 8 -31 8 -70 0 -81
-18 -95 -22 -17 l-3 52 -20 -32 c-10 -18 -23 -33 -27 -33 -4 0 -18 16 -32 37
l-25 36 -4 -59 c-3 -59 -3 -59 -5 14 -1 39 0 72 3 72 3 0 17 -18 31 -40z m192
33 c-33 -4 -38 -8 -38 -29 0 -20 5 -24 33 -26 l32 -1 -32 -4 c-29 -4 -33 -8
-33 -33 0 -26 4 -29 38 -33 l37 -4 -42 -1 -43 -2 0 70 0 70 43 -2 42 -1 -37
-4z m86 -11 c-1 -7 -2 -37 -2 -67 -3 -82 -22 -68 -22 16 0 52 3 70 13 67 6 -3
12 -10 11 -16z m84 -89 l-3 -38 -38 54 c-21 29 -36 55 -33 58 2 3 17 -14 33
-38 l28 -43 4 60 c4 48 6 52 9 22 2 -21 2 -55 0 -75z m120 100 c-27 -4 -28 -7
-30 -71 l-2 -67 -3 67 c-4 64 -5 67 -31 71 -15 2 0 4 33 4 33 0 48 -2 33 -4z
m182 -13 c6 -11 7 -20 1 -20 -5 0 -12 7 -15 16 -8 20 -60 15 -64 -7 -2 -10 11
-21 38 -32 44 -17 59 -39 40 -62 -22 -27 -90 -14 -90 18 0 5 7 1 16 -7 19 -20
48 -21 63 -2 13 16 1 29 -42 45 -15 6 -30 18 -33 26 -16 41 65 64 86 25z m88
13 c-33 -4 -38 -8 -38 -29 0 -21 5 -24 38 -25 l37 -2 -35 -6 c-29 -5 -36 -11
-38 -33 -3 -25 0 -27 40 -31 l43 -4 -47 -1 -48 -2 0 70 0 70 43 -2 42 -1 -37
-4z m156 -9 c20 -20 20 -38 0 -59 -15 -14 -15 -18 0 -40 9 -14 12 -25 7 -25
-5 0 -16 11 -25 25 -23 34 -53 33 -59 -2 -2 -16 -5 5 -6 45 l-1 72 34 0 c19 0
42 -7 50 -16z m70 -49 l23 -58 24 62 c13 33 27 61 31 61 9 0 -45 -131 -55
-133 -9 -2 -57 106 -57 126 0 18 10 2 34 -58z m113 -42 c-2 -21 -4 -4 -4 37 0
41 2 58 4 38 2 -21 2 -55 0 -75z m158 87 c10 -11 16 -22 13 -25 -3 -3 -13 4
-23 15 -36 40 -95 15 -95 -40 0 -55 59 -80 95 -40 10 11 20 18 23 15 13 -12
-33 -45 -64 -45 -35 0 -74 37 -74 70 0 10 9 29 21 44 26 33 77 36 104 6z m103
13 c-33 -4 -38 -8 -38 -29 0 -20 5 -24 33 -26 l32 -1 -32 -4 c-29 -4 -33 -8
-33 -33 0 -26 4 -29 38 -33 34 -3 33 -4 -10 -5 l-48 -2 0 70 0 70 48 -2 c43
-1 44 -2 10 -5z m136 1 c9 -3 16 -13 16 -22 0 -13 -2 -13 -13 2 -18 24 -62 18
-62 -8 0 -13 11 -23 34 -31 44 -14 60 -37 42 -59 -23 -27 -91 -18 -91 12 0 13
2 13 13 -2 16 -22 60 -18 65 6 2 13 -8 22 -37 34 -31 12 -41 22 -41 38 0 13 3
26 7 29 8 9 46 9 67 1z"/>
<path d="M1285 2758 c-15 -42 -35 -101 -35 -104 0 -2 20 -4 45 -4 25 0 45 3
45 7 0 3 -8 30 -17 60 -16 52 -29 66 -38 41z"/>
<path d="M1470 2235 c0 -21 5 -25 29 -25 17 0 33 5 36 10 10 16 -15 40 -41 40
-19 0 -24 -5 -24 -25z"/>
<path d="M1470 2169 c0 -28 2 -30 33 -27 41 4 52 42 15 52 -41 11 -48 7 -48
-25z"/>
<path d="M1650 2200 c0 -56 2 -60 23 -60 36 0 67 27 67 60 0 33 -31 60 -67 60
-21 0 -23 -4 -23 -60z"/>
<path d="M2280 2240 c-11 -11 -20 -29 -20 -40 0 -11 9 -29 20 -40 11 -11 29
-20 40 -20 11 0 29 9 40 20 11 11 20 29 20 40 0 11 -9 29 -20 40 -11 11 -29
20 -40 20 -11 0 -29 -9 -40 -20z"/>
<path d="M2440 2225 c0 -31 3 -35 25 -35 33 0 51 33 29 54 -8 9 -24 16 -35 16
-15 0 -19 -7 -19 -35z"/>
<path d="M3422 2228 c3 -30 6 -33 32 -31 57 4 52 63 -5 63 -28 0 -30 -2 -27
-32z"/>
</g>
</svg>
